<?xml version="1.0" encoding="utf-8"?>
<!-- Generator: Adobe Illustrator 19.0.0, SVG Export Plug-In . SVG Version: 6.00 Build 0)  -->
<svg version="1.1" id="Layer_1" xmlns="http://www.w3.org/2000/svg" xmlns:xlink="http://www.w3.org/1999/xlink" x="0px" y="0px"
	 viewBox="-329 192.5 300 177.5" style="enable-background:new -329 192.5 300 177.5;" xml:space="preserve">
<style type="text/css">
	.st0{fill:#2AAAE2;}
	.st1{fill:#2D3F50;}
	.st2{fill:#2D3F50;stroke:#2D3F50;stroke-miterlimit:10;}
</style>
<path class="st0" d="M-259,326.5l19.7,22.8c0,0-34.4,10.9-48.2,9.8C-287.5,359.1-254,329-259,326.5z"/>
<ellipse class="st0" cx="-179" cy="279.8" rx="121.3" ry="79.4"/>
<path class="st1" d="M-124.8,299.7c-10.8,14.7-31.8,23.8-54.6,23.8s-43.7-9.1-54.6-23.8c-1.7-2.2-0.5-5.1,2.6-6.3s6.9-0.4,8.7,1.9
	c8.7,11.7,25.4,19,43.5,19s34.7-7.2,43.5-19c1.7-2.3,5.5-3.1,8.7-1.9C-124.2,294.6-123.1,297.5-124.8,299.7z"/>
<g>
	<circle class="st2" cx="-202.6" cy="247.4" r="7.9"/>
	<circle class="st2" cx="-154.2" cy="247.4" r="7.9"/>
</g>
</svg>
