<?xml version="1.0" encoding="utf-8"?>
<!-- Generator: Adobe Illustrator 19.2.1, SVG Export Plug-In . SVG Version: 6.00 Build 0)  -->
<svg version="1.1" id="Layer_1" xmlns="http://www.w3.org/2000/svg" xmlns:xlink="http://www.w3.org/1999/xlink" x="0px" y="0px"
	 viewBox="0 0 300 198.5" style="enable-background:new 0 0 300 198.5;" xml:space="preserve">
<style type="text/css">
	.st0{fill:#2AAAE2;}
	.st1{fill:#2B3E50;}
</style>
<g>
	<path class="st0" d="M227.9,169.1l-156.4-0.6c-6.6,0-12-5.4-12-12L60,42.8c0-6.6,5.4-12,12-12l156.4,0.6c6.6,0,12,5.4,12,12
		L240,157.2C239.9,163.8,234.5,169.1,227.9,169.1z"/>
	
		<rect x="71.7" y="45.3" transform="matrix(1 4.083484e-03 -4.083484e-03 1 0.3829 -0.6119)" class="st1" width="156.7" height="96.4"/>
	<path class="st0" d="M163.9,184.5l-28.5-0.1c-3.8,0-7-3.2-7-7l0.1-14.2c0-3.8,3.2-7,7-7l28.5,0.1c3.8,0,7,3.2,7,7l-0.1,14.2
		C170.9,181.4,167.7,184.5,163.9,184.5z"/>
	
		<ellipse transform="matrix(4.083484e-03 -1 1 4.083484e-03 -6.1346 304.4371)" class="st1" cx="149.8" cy="155.3" rx="7.1" ry="7.1"/>
	<path class="st0" d="M205.5,189.1l-111.7-0.5c-1.5,0-2.6-1.2-2.6-2.7l0-4.2c0-1.5,1.2-2.6,2.7-2.6l111.7,0.5c1.5,0,2.6,1.2,2.6,2.7
		l0,4.2C208.1,187.9,206.9,189.1,205.5,189.1z"/>
</g>
</svg>
