<?xml version="1.0" encoding="utf-8"?>
<!-- Generator: Adobe Illustrator 19.0.0, SVG Export Plug-In . SVG Version: 6.00 Build 0)  -->
<svg version="1.1" id="Layer_1" xmlns="http://www.w3.org/2000/svg" xmlns:xlink="http://www.w3.org/1999/xlink" x="0px" y="0px"
	 viewBox="-369 136.2 220.4 288.8" style="enable-background:new -369 136.2 220.4 288.8;" xml:space="preserve">
<style type="text/css">
	.st0{fill:#29ABE2;}
	.st1{fill:#1C2E3D;enable-background:new    ;}
	.st2{fill:#2C3E50;enable-background:new    ;}
	.st3{opacity:0.2;fill:#FFFFFF;stroke:#FFFFFF;stroke-miterlimit:10;enable-background:new    ;}
	.st4{fill:#2C3E50;}
	.st5{fill:#29ABE2;stroke:#29ABE2;stroke-miterlimit:10;enable-background:new    ;}
</style>
<path class="st0" d="M-164.9,418.5h-194.8V146.3h194.8c3.9,0,7,3.2,7,7v258.1C-157.9,415.4-161,418.5-164.9,418.5z"/>
<rect x="-354.8" y="146.3" class="st1" width="4" height="272.2"/>
<path class="st2" d="M-302.4,237c0,0,0.3,12.1-11.8,13.4C-314.2,250.5-317.7,240.6-302.4,237z"/>
<path class="st2" d="M-301.4,214.5c0,0,1.5,21.4-13.7,22.4C-315.1,236.9-320.4,225.5-301.4,214.5z"/>
<path class="st2" d="M-321.3,229.6c0,0,7,13.2-1.6,22.8C-322.9,252.4-330.9,241.8-321.3,229.6z"/>
<path class="st2" d="M-306.7,252.7c0,0-1.2,14.7-11.8,18.3C-318.5,271-323.4,258.2-306.7,252.7z"/>
<path class="st2" d="M-332.5,250.1c0,0,14.4,9,8.2,24.2C-324.4,274.2-337.3,264.5-332.5,250.1z"/>
<path class="st2" d="M-308.6,271c0,0,1.9,18.6-7.8,19.6C-316.5,290.5-320.3,276.5-308.6,271z"/>
<path class="st2" d="M-333.7,271.8c0,0,13.2,7.2,13.2,20.6C-320.7,292.4-335.3,286.8-333.7,271.8z"/>
<path class="st2" d="M-331.1,290.1c0,0,17.2,5.9,15.8,19.4C-315.1,309.4-329.5,308.4-331.1,290.1z"/>
<path class="st2" d="M-326.5,311.4c0,0,22-0.5,28.1,14.4C-298.4,325.9-321.4,327.9-326.5,311.4z"/>
<path class="st3" d="M-316.5,328.8"/>
<path class="st2" d="M-316.7,328.8c0,0,23-2,26,5C-290.7,333.9-304.1,339-316.7,328.8z"/>
<path class="st2" d="M-304,340.6c0,0,13.9-6.7,21.3,0.3C-282.7,340.9-291.1,347.4-304,340.6z"/>
<path class="st2" d="M-273.9,329.5c0,0,11.3,8,6.9,15C-267,344.7-275.9,339.1-273.9,329.5z"/>
<path class="st2" d="M-286.7,346.2c0,0,10.1-3.9,16.5,0.3C-270.1,346.3-277,353.2-286.7,346.2z"/>
<path class="st2" d="M-263.5,341.3c0,0,5.2,3.6,3.1,6.9C-260.2,348.2-264.8,344.2-263.5,341.3z"/>
<path class="st2" d="M-269.2,348.9c0,0,4.6-1.8,7.6,0.2C-261.5,348.9-263.8,352-269.2,348.9z"/>
<path class="st2" d="M-207.1,237c0,0-0.3,12.1,11.8,13.4C-195.2,250.5-191.6,240.6-207.1,237z"/>
<path class="st2" d="M-208,214.5c0,0-1.5,21.4,13.7,22.4C-194.4,236.9-188.9,225.5-208,214.5z"/>
<path class="st2" d="M-188,229.6c0,0-7,13.2,1.6,22.8C-186.4,252.4-178.4,241.8-188,229.6z"/>
<path class="st2" d="M-202.7,252.7c0,0,1.2,14.7,11.8,18.3C-190.8,271-185.9,258.2-202.7,252.7z"/>
<path class="st2" d="M-176.8,250.1c0,0-14.4,9-8.2,24.2C-184.9,274.2-172,264.5-176.8,250.1z"/>
<path class="st2" d="M-200.8,271c0,0-1.9,18.6,7.8,19.6C-192.8,290.5-189,276.5-200.8,271z"/>
<path class="st2" d="M-176.1,271.8c0,0-13.2,7.2-13.2,20.6C-189.3,292.4-174.5,286.8-176.1,271.8z"/>
<path class="st2" d="M-177.9,289.5c0,0-17.2,5.9-15.8,19.4C-193.8,308.9-179.4,307.9-177.9,289.5z"/>
<path class="st2" d="M-184.1,311.4c0,0-22-0.5-28.1,14.4C-212.2,325.9-189.2,327.9-184.1,311.4z"/>
<path class="st3" d="M-194.6,328.8"/>
<path class="st2" d="M-194.4,328.8c0,0-23-2-26,5C-220.5,333.9-207.1,339-194.4,328.8z"/>
<path class="st2" d="M-207.1,340.6c0,0-13.9-6.7-21.3,0.3C-228.4,340.9-220.1,347.4-207.1,340.6z"/>
<path class="st2" d="M-237.2,329.5c0,0-11.3,8-6.9,15C-244.1,344.7-235.2,339.1-237.2,329.5z"/>
<path class="st2" d="M-224.6,346.2c0,0-10.1-3.9-16.5,0.3C-241.1,346.3-234.2,353.2-224.6,346.2z"/>
<path class="st2" d="M-247.8,341.3c0,0-5.2,3.6-3.1,6.9C-250.9,348.2-246.3,344.2-247.8,341.3z"/>
<path class="st2" d="M-241.9,348.9c0,0-4.6-1.8-7.6,0.2C-249.5,348.9-247.5,352-241.9,348.9z"/>
<g id="XMLID_42_">
	<path id="XMLID_50_" class="st4" d="M-232.6,337c0,0,12.1-2.8,9-19.6C-223.6,317.6-237.7,328.8-232.6,337z"/>
	<path id="XMLID_53_" class="st4" d="M-203.2,308.5c0.5,0.4,1.2,0.8,2,1.2c0,0,7.8-10.1-1.5-19.9c-5.4-17.9-14.2-47.3-14.2-47.3
		l-5-1.2l2.4-5.2l-5.2-9.3c-6.8,7.7-13.4,27.6-13.4,27.6h-34.5c-10.3-25.8-13.2-26.8-13.2-26.8c-1.8-1.3-15.3,41.5-22.1,63.2
		c-3.4,4.1-3.9,8.2-3.6,11.6c-0.2,0.5-0.3,1-0.3,1l0.4-0.2c0.7,4.1,2.8,6.8,2.8,6.8c0.3-0.2,0.5-0.3,0.8-0.4l-1.6,3l7.6-2.8
		c0,1.3,0.3,2.6,0.5,3.6l-1.5,2h2.1c1.9,4.4,5.2,7,5.2,7c2-2.1,2.4-4.6,2-7.2h0.4l4.6,2.6c-3,16.4,9,19.3,9,19.3
		c4.4-6.9-5-15.7-8-18.4l28.4,16.8h6.2l30.5-20.4h2.6c-1.2,2.8-1.5,6.9,1.3,9.8c0,0,4.7-4.4,6.2-9.8h1.6l-1.2-2.1
		c0.2-1.2,0.2-2.8-0.2-4.1l10.4,3.6L-203.2,308.5z M-302.2,300.1c0-0.2,0-0.3,0-0.4l0.3-0.2L-302.2,300.1z M-207,300.2
		c0,0.8,0.2,1.5,0.3,2.3l-1.6-2.8L-207,300.2z"/>
</g>
<polygon class="st5" points="-262.1,316.4 -248.6,316.4 -255.3,323.9 "/>
<path id="XMLID_48_" class="st5" d="M-219.5,269.1h-11.4c-11.3,0-20.4,5.4-20.7,5.4h-5.2c0,0-9.2-5.4-20.7-5.4h-11.4
	c0,0-11.9,0-17.3,2.4v4.4c0,0,4.4,0.4,4.4,6.5c0,0,1.1,9.5,3.9,13.3c0,0,1.8,4.2,8.2,5c0,0,16.3,2,19.9-0.8c0,0,7.7-4.6,9.9-14.8
	c0,0,0.4-5.9,3.6-5.9l4.7,0.2c2.4,0.7,2.8,5.7,2.8,5.7c2.1,10.3,9.9,14.8,9.9,14.8c3.8,2.8,19.9,0.8,19.9,0.8c6.4-0.8,8.2-5,8.2-5
	c3-3.8,3.6-13.3,3.6-13.3c0.2-6.2,3.9-6.5,3.9-6.5v-4.4C-207.5,269.1-219.5,269.1-219.5,269.1z M-264,288c0,0-1.9,7.2-7.6,9.8
	c0,0-4.9,3-19.3,0c0,0-6.1-1.1-8.2-10.8c0,0-1.6-6.7,0-11.9c0,0,1.8-3.4,8.8-4.1c0,0,6.2-0.8,16.2,0c0,0,9.3,0.7,11.1,5.4
	C-263.1,276.5-261.5,280.6-264,288z M-210.1,287.2c-2,9.5-8.2,10.8-8.2,10.8c-14.4,3-19.3,0-19.3,0c-5.7-2.6-7.6-9.8-7.6-9.8
	c-2.4-7.5-1-11.6-1-11.6c1.6-4.7,11.1-5.4,11.1-5.4c9.8-0.8,16.2,0,16.2,0c6.9,0.8,8.8,4.1,8.8,4.1
	C-208.4,280.5-210.1,287.2-210.1,287.2z"/>
</svg>
