<?xml version="1.0" encoding="utf-8"?>
<!-- Generator: Adobe Illustrator 19.0.0, SVG Export Plug-In . SVG Version: 6.00 Build 0)  -->
<svg version="1.1" id="Layer_1" xmlns="http://www.w3.org/2000/svg" xmlns:xlink="http://www.w3.org/1999/xlink" x="0px" y="0px"
	 viewBox="-369 136.2 220.4 288.8" style="enable-background:new -369 136.2 220.4 288.8;" xml:space="preserve">
<style type="text/css">
	.st0{fill:#29ABE2;}
	.st1{opacity:0.2;fill:#1C2E3D;enable-background:new    ;}
	.st2{opacity:0.2;fill:#FFFFFF;stroke:#FFFFFF;stroke-miterlimit:10;enable-background:new    ;}
	.st3{opacity:0.2;}
	.st4{fill:#FFFFFF;stroke:#FFFFFF;stroke-miterlimit:10;}
</style>
<path class="st0" d="M-162.5,418.4h-194.8V146.2h194.8c3.9,0,7,3.2,7,7v258.1C-155.5,415.3-158.6,418.4-162.5,418.4z"/>
<rect x="-352.4" y="146.2" class="st1" width="4" height="272.2"/>
<g>
	<path class="st2" d="M-305.7,231.2c0,0,0.3,13.6-13.3,15.1C-318.9,246.4-322.9,235.2-305.7,231.2z"/>
	<path class="st2" d="M-304.6,205.9c0,0,1.7,24.1-15.4,25.2C-320,231.1-325.9,218.3-304.6,205.9z"/>
	<path class="st2" d="M-326.9,222.9c0,0,7.9,14.8-1.8,25.6C-328.7,248.5-337.7,236.6-326.9,222.9z"/>
	<path class="st2" d="M-310.5,248.9c0,0-1.4,16.5-13.3,20.6C-323.8,269.5-329.3,255-310.5,248.9z"/>
	<path class="st2" d="M-339.5,245.9c0,0,16.2,10.1,9.2,27.2C-330.4,273.1-345,262.1-339.5,245.9z"/>
	<path class="st2" d="M-312.7,269.4c0,0,2.1,20.9-8.8,22C-321.5,291.4-325.8,275.6-312.7,269.4z"/>
	<path class="st2" d="M-340.9,270.3c0,0,14.8,8.1,14.8,23.2C-326.3,293.5-342.7,287.2-340.9,270.3z"/>
	<path class="st2" d="M-338,290.9c0,0,19.4,6.6,17.8,21.8C-320,312.7-336.2,311.5-338,290.9z"/>
	<path class="st2" d="M-332.8,314.9c0,0,24.7-0.6,31.6,16.2C-301.2,331.2-327,333.5-332.8,314.9z"/>
	<path class="st2" d="M-321.5,334.5"/>
	<path class="st2" d="M-321.8,334.5c0,0,25.9-2.3,29.3,5.6C-292.5,340.2-307.6,346-321.8,334.5z"/>
	<path class="st2" d="M-307.5,347.8c0,0,15.6-7.5,24,0.3C-283.5,348.1-293,355.4-307.5,347.8z"/>
	<path class="st2" d="M-273.6,335.3c0,0,12.7,9,7.8,16.9C-265.8,352.4-275.9,346.1-273.6,335.3z"/>
	<path class="st2" d="M-288,354.1c0,0,11.4-4.4,18.6,0.3C-269.3,354.2-277.1,362-288,354.1z"/>
	<path class="st2" d="M-261.9,348.6c0,0,5.8,4.1,3.5,7.8C-258.2,356.3-263.4,351.8-261.9,348.6z"/>
	<path class="st2" d="M-268.3,357.1c0,0,5.2-2,8.5,0.2C-259.7,357.1-262.2,360.6-268.3,357.1z"/>
	<path class="st2" d="M-198.4,231.2c0,0-0.3,13.6,13.3,15.1C-185,246.4-181,235.2-198.4,231.2z"/>
	<path class="st2" d="M-199.5,205.9c0,0-1.7,24.1,15.4,25.2C-184.1,231.1-178,218.3-199.5,205.9z"/>
	<path class="st2" d="M-177,222.9c0,0-7.9,14.8,1.8,25.6C-175.2,248.5-166.2,236.6-177,222.9z"/>
	<path class="st2" d="M-193.5,248.9c0,0,1.4,16.5,13.3,20.6C-180.1,269.5-174.6,255-193.5,248.9z"/>
	<path class="st2" d="M-164.4,245.9c0,0-16.2,10.1-9.2,27.2C-173.5,273.1-159,262.1-164.4,245.9z"/>
	<path class="st2" d="M-191.4,269.4c0,0-2.1,20.9,8.8,22C-182.4,291.4-178.1,275.6-191.4,269.4z"/>
	<path class="st2" d="M-163.6,270.3c0,0-14.8,8.1-14.8,23.2C-178.4,293.5-161.8,287.2-163.6,270.3z"/>
	<path class="st2" d="M-165.6,290.3c0,0-19.4,6.6-17.8,21.8C-183.5,312.1-167.3,311-165.6,290.3z"/>
	<path class="st2" d="M-172.6,314.9c0,0-24.7-0.6-31.6,16.2C-204.2,331.2-178.3,333.5-172.6,314.9z"/>
	<path class="st2" d="M-184.4,334.5"/>
	<path class="st2" d="M-184.2,334.5c0,0-25.9-2.3-29.3,5.6C-213.5,340.2-198.4,346-184.2,334.5z"/>
	<path class="st2" d="M-198.4,347.8c0,0-15.6-7.5-24,0.3C-222.4,348.1-213.1,355.4-198.4,347.8z"/>
	<path class="st2" d="M-232.3,335.3c0,0-12.7,9-7.8,16.9C-240.1,352.4-230.1,346.1-232.3,335.3z"/>
	<path class="st2" d="M-218.1,354.1c0,0-11.4-4.4-18.6,0.3C-236.7,354.2-228.9,362-218.1,354.1z"/>
	<path class="st2" d="M-244.2,348.6c0,0-5.8,4.1-3.5,7.8C-247.7,356.3-242.5,351.8-244.2,348.6z"/>
	<path class="st2" d="M-237.6,357.1c0,0-5.2-2-8.5,0.2C-246.2,357.1-243.9,360.6-237.6,357.1z"/>
	<g id="XMLID_42_" class="st3">
		<path id="XMLID_50_" class="st4" d="M-227.1,343.7c0,0,13.6-3.2,10.1-22C-217,321.9-232.9,334.5-227.1,343.7z"/>
		<path id="XMLID_53_" class="st4" d="M-194,311.6c0.6,0.5,1.4,0.9,2.3,1.4c0,0,8.8-11.4-1.7-22.4c-6.1-20.1-16-53.2-16-53.2
			l-5.6-1.4l2.7-5.9l-5.8-10.5c-7.6,8.7-15.1,31.1-15.1,31.1h-38.8c-11.6-29-14.8-30.1-14.8-30.1c-2-1.5-17.2,46.7-24.9,71.1
			c-3.8,4.6-4.4,9.2-4,13c-0.2,0.6-0.3,1.1-0.3,1.1l0.5-0.2c0.8,4.6,3.2,7.6,3.2,7.6c0.3-0.2,0.6-0.3,0.9-0.5l-1.8,3.4l8.5-3.1
			c0,1.5,0.3,2.9,0.6,4.1l-1.7,2.3h2.4c2.1,5,5.9,7.9,5.9,7.9c2.3-2.4,2.7-5.2,2.3-8.1h0.5l5.2,2.9c-3.4,18.5,10.1,21.7,10.1,21.7
			c5-7.8-5.6-17.7-9-20.7l32,18.9h7l34.3-22.9h2.9c-1.4,3.1-1.7,7.8,1.5,11c0,0,5.3-4.9,7-11h1.8l-1.4-2.4c0.2-1.4,0.2-3.1-0.2-4.6
			l11.7,4L-194,311.6z M-305.4,302.2c0-0.2,0-0.3,0-0.5l0.3-0.2L-305.4,302.2z M-198.3,302.3c0,0.9,0.2,1.7,0.3,2.6l-1.8-3.1
			L-198.3,302.3z"/>
	</g>
	<polygon class="st2" points="-260.3,320.5 -245.1,320.5 -252.7,329 	"/>
	<path id="XMLID_48_" class="st2" d="M-212.4,267.3h-12.8c-12.7,0-22.9,6.1-23.3,6.1h-5.8c0,0-10.4-6.1-23.3-6.1h-12.8
		c0,0-13.4,0-19.5,2.7v4.9c0,0,4.9,0.5,5,7.3c0,0,1.2,10.7,4.4,15c0,0,2,4.7,9.2,5.6c0,0,18.3,2.3,22.4-0.9c0,0,8.7-5.2,11.1-16.6
		c0,0,0.5-6.6,4-6.6l5.3,0.2c2.7,0.8,3.2,6.4,3.2,6.4c2.4,11.6,11.1,16.6,11.1,16.6c4.3,3.2,22.4,0.9,22.4,0.9
		c7.2-0.9,9.2-5.6,9.2-5.6c3.4-4.3,4-15,4-15c0.2-7,4.4-7.3,4.4-7.3V270C-198.9,267.3-212.4,267.3-212.4,267.3z M-262.5,288.6
		c0,0-2.1,8.1-8.5,11c0,0-5.5,3.4-21.7,0c0,0-6.9-1.2-9.2-12.1c0,0-1.8-7.5,0-13.4c0,0,2-3.8,9.9-4.6c0,0,7-0.9,18.2,0
		c0,0,10.5,0.8,12.5,6.1C-261.4,275.6-259.7,280.2-262.5,288.6z M-201.8,287.7c-2.3,10.7-9.2,12.1-9.2,12.1c-16.2,3.4-21.7,0-21.7,0
		c-6.4-2.9-8.5-11-8.5-11c-2.7-8.4-1.1-13-1.1-13c1.8-5.3,12.5-6.1,12.5-6.1c11-0.9,18.2,0,18.2,0c7.8,0.9,9.9,4.6,9.9,4.6
		C-199.9,280.1-201.8,287.7-201.8,287.7z"/>
</g>
</svg>
