<?xml version="1.0" encoding="utf-8"?>
<!-- Generator: Adobe Illustrator 19.0.0, SVG Export Plug-In . SVG Version: 6.00 Build 0)  -->
<svg version="1.1" id="Layer_1" xmlns="http://www.w3.org/2000/svg" xmlns:xlink="http://www.w3.org/1999/xlink" x="0px" y="0px"
	 viewBox="220 -113 1400 787" style="enable-background:new 220 -113 1400 787;" xml:space="preserve">
<style type="text/css">
	.st0{fill:#FFFFFF;}
	.st1{fill:#E5E3E3;}
</style>
<title>mit_white</title>
<path class="st0" d="M267-62.7c-0.3,30.9,0,61.8-0.1,92.7v579.7c47.2,0.1,94.4,0,141.5,0.1c0.1-224.2,0.1-448.3,0-672.5
	C361.3-62.6,314.2-62.6,267-62.7z M498.1-62.7c0,152.5,0,305,0,457.5c47.2,0,94.3,0,141.5,0c0-152.5,0-305,0-457.5L498.1-62.7
	L498.1-62.7z M728.8-62.7c0.1,224.2,0.1,448.3,0,672.5c47.2,0,94.3,0,141.5,0c0-224.2,0-448.3,0-672.5
	C823.2-62.6,776-62.7,728.8-62.7L728.8-62.7z M960-62.7c-0.1,44.5,0,89.1,0,133.6c47.2,0,94.3,0,141.5,0c0-44.5,0-89,0-133.6
	C1054.3-62.7,1007.1-62.6,960-62.7z M1194.7-62.6c0,44.5,0,89,0,133.4c124.3,0,248.5,0,372.8,0c0-44.5,0-89,0-133.4L1194.7-62.6
	L1194.7-62.6z M960,152c0,152.6,0,305.2,0,457.8c47.2,0,94.3,0,141.5,0c0-152.6,0-305.2,0-457.9C1054.3,152.1,1007.1,152,960,152z
	 M1194.8,152c0,152.6,0,305.2,0,457.9c47.2,0,94.3,0,141.5,0c0.1-152.6,0.1-305.3,0-457.9C1289.1,152.1,1241.9,152.1,1194.8,152
	L1194.8,152z"/>
<path class="st0" d="M267-62.7c47.2,0,94.3,0,141.4,0c0,224.2,0,448.3,0,672.5c-47.2-0.1-94.4,0-141.5-0.1V30
	C267-0.9,266.7-31.8,267-62.7z"/>
<path class="st0" d="M498.1-62.7h141.5c0,152.5,0,305,0,457.5c-47.2,0-94.3,0-141.5,0C498.1,242.4,498.1,89.8,498.1-62.7z"/>
<path class="st0" d="M728.8-62.6c47.2-0.1,94.4,0,141.6,0c-0.1,224.2-0.1,448.3,0,672.5c-47.2,0-94.3,0-141.5,0
	C728.8,385.7,728.7,161.5,728.8-62.6z"/>
<path class="st0" d="M960-62.7c47.2,0.1,94.3,0,141.5,0c0,44.5,0,89,0,133.6c-47.2,0-94.3,0-141.5,0C960,26.4,959.9-18.2,960-62.7z"
	/>
<path class="st0" d="M1194.6-62.6h372.8c0,44.5,0,89,0,133.5c-124.3,0-248.5,0-372.8,0C1194.6,26.4,1194.6-18.1,1194.6-62.6z"/>
<path class="st0" d="M1194.7,152c47.2,0.1,94.3,0.1,141.5,0c0,152.6,0,305.3,0,457.9c-47.2-0.1-94.3,0-141.5,0
	C1194.7,457.2,1194.7,304.6,1194.7,152z"/>
<path class="st1" d="M960,152c47.2,0,94.3,0.1,141.5-0.1c0,152.6,0,305.2,0,457.9c-47.2,0-94.3,0-141.5,0
	C960,457.2,960,304.6,960,152z"/>
</svg>
