<svg id="Layer_1" data-name="Layer 1" xmlns="http://www.w3.org/2000/svg" viewBox="0 0 390.87 130.29"><defs><style>.cls-1{fill:#fff;}.cls-2{fill:#e0e0e0;}.cls-3{fill:#efefef;}</style></defs><title>npr_logo_clr_white</title><path class="cls-1" d="M0,0V130.29H130.28V0H0ZM94.63,98.38H79.06V59.94q0-8.51-3.28-12.42T65.08,43.6a16.65,16.65,0,0,0-7.34,1.92,16.93,16.93,0,0,0-6.08,4.78V98.38H36.1V31.59H47.32l2.87,6.23Q56.54,30.47,69,30.47q11.89,0,18.79,7.13t6.89,19.89v40.9Z" transform="translate(0 0)"/><path class="cls-2" d="M190.73,43.79a13.69,13.69,0,0,0-9.94,4.35v35a15.24,15.24,0,0,0,9.88,3.42q10.76,0,15.44-5.13t4.69-16.2q0-11.81-4.65-16.63T190.73,43.79Z" transform="translate(0 0)"/><path class="cls-2" d="M130.28,0V130.29h130.3V0H130.28Zm88,90.85q-8.82,8.85-24.1,8.85a30.3,30.3,0,0,1-13.41-2.94v27.7H165.22V31.59h15.57v4.49a20.05,20.05,0,0,1,14.41-5.61q31.93,0,31.93,35.14Q227.13,82,218.3,90.85Z" transform="translate(0 0)"/><path class="cls-3" d="M260.58,0V130.29H390.87V0H260.58ZM343,46.22a16.72,16.72,0,0,0-9.11-2.62q-5.41,0-9.58,4.91a17.79,17.79,0,0,0-4.19,12V98.38H304.51V31.59h15.57V38q6.5-7.5,17.3-7.5,7.94,0,12.15,2.43Z" transform="translate(0 0)"/></svg>