<svg id="Layer_1" data-name="Layer 1" xmlns="http://www.w3.org/2000/svg" viewBox="0 0 346.5 51.56"><defs><style>.cls-1{fill:#fff;fill-rule:evenodd;}</style></defs><title>Fast_Company_White</title><path class="cls-1" d="M168.15,17.19c0,7-.7,28.57-0.7,28.57,0,4.18,1.39,6,5.34,6v1.86H157.23V51.8c3.95,0,6-1.86,6-6l1.39-35.3c-1.16-2.79-2.32-3.72-5.34-3.95V4.88h11.84l12.54,33,12.77-33h10.68V6.51c-3,0-4.64,1.39-4.64,4.64l1.39,34.14c0,5.11.93,6.5,5.11,6.5v1.86H191.14V51.8c3.48,0,5.11-1.16,4.88-6.5,0,0-.7-23.92-0.93-28.1L186.5,40.88a88.59,88.59,0,0,0-3.25,10.22l-2.79.23c-0.7-2.55-2.55-7.2-2.55-7.2s-7.2-20.2-9.75-26.94h0Z" transform="translate(-3.49 -3.26)"/><path class="cls-1" d="M153.52,53.89a11.29,11.29,0,0,0-2.79-.23c-1.86,0-5.11.93-9.06,0.93-15.1,0-26.24-9.06-26.24-25.78,0-14.17,10.45-25.08,26.48-25.08a31.86,31.86,0,0,1,11.38,2.09c0.7-.7.93-1.16,1.63-1.86h1.39c-0.23,2.55-1.16,10.91-1.16,10.91h-1.39c-0.93-4.88-3.48-8.13-11.61-8.13-9.75,0-18.58,7.66-18.58,21.83,0,16,9.06,23,19,23,6.5,0,10.45-3.72,13-8.36l1.63,0.7-3.72,10h0Z" transform="translate(-3.49 -3.26)"/><path class="cls-1" d="M109.63,13.94H108c-0.23-4.41-1.63-5.81-5.11-5.81H96.16V44.6c0,6,1.16,7.2,5.11,7.2v1.86H83.85V51.8c3.95,0,5.11-1.16,5.11-7.43V8.14H82.22c-4.41,0-5.11,1.16-6.27,5.81H74.33L75.49,3.49l1.16,0.23C77.11,4.88,78,4.88,80.83,4.88h22.53c4.18,0,5.11,0,6-1.39h1.39l-1.16,10.45h0Z" transform="translate(-3.49 -3.26)"/><path class="cls-1" d="M60.39,54.82a22.14,22.14,0,0,1-7.66-1.16A13.33,13.33,0,0,1,48.78,52a12.46,12.46,0,0,0-1.63,2.09l-1.39-.46,1.16-10.92L48.55,43C49.48,48.08,53,51.8,60.16,51.8c5.57,0,9.29-4.64,9.29-9.75,0-4.18-1.63-6.27-7.2-10.45a44.38,44.38,0,0,1-4.88-3.25c-5.11-3.25-8.36-7-8.36-13,0-7,5.81-11.61,13.47-11.61a17.48,17.48,0,0,1,8.13,1.86l1.63-1.86L73.4,4l-1.16,10-1.63-.23C70.61,9.06,67.82,7,63.18,7c-4.41,0-7.66,2.32-7.66,6.73,0,3.95,3,6.5,6.5,8.83,1.86,1.16,3.25,2.09,4.64,3,8.13,5.81,10,9.52,10,15.09,0,8.13-6.27,14.17-16.26,14.17h0Z" transform="translate(-3.49 -3.26)"/><path class="cls-1" d="M33.92,13.94H32.06c0-4.18-1.86-5.81-5.57-5.81H16V26.48h6.73c3.48,0,4.18-1.86,4.64-4.88H29v13H27.42c-0.46-3.48-1.16-4.88-4.88-4.88H16V45.29c0,5.81,1.39,6.5,5.11,6.5v1.86H3.49V51.8c4.41,0,5.11-1.16,5.11-6.5V11.16c0-3.25-1.39-4.64-5.11-4.64V4.88H27.65c4.18,0,5.11-.23,5.81-1.63h1.63L33.92,13.94h0Z" transform="translate(-3.49 -3.26)"/><path class="cls-1" d="M284.5,16.73V44.6c0,6,1.39,7.2,5.11,7.2v1.86h-27.4V51.8c2.09,0,3.95-.7,3.95-2.09a17.18,17.18,0,0,0-.7-4.18l-2.09-6.73H248c-0.23.93-3,8.59-3,10.68,0,1.86,2.09,2.32,3.48,2.32v1.86H235.73V51.8c2.32,0,4.18-.23,5.81-5.11L253.38,8.83a3.49,3.49,0,0,0-3.25-2.32V4.88h10.45L273.12,44.6c1.16,4.18,2.32,6.27,4.18,7.2,2.79-.93,3.48-1.86,3.48-7.2V11.16c-2.09-2.79-2.32-4.64-6.27-4.64V4.88h11.84l19.51,33.21V12.78c0-5.11-1.16-6.27-5.11-6.27V4.88h26V6.51c-1.63,0-3,.7-3,2.32a12.42,12.42,0,0,0,.93,3.72l7.43,16L339.31,13A8.45,8.45,0,0,0,340.7,8.6c0-1.39-.93-2.09-3-2.09V4.88H350V6.51c-3,0-4.88,2.79-6.27,6L334.2,32.06V44.83c0,5.57,1.39,7,5.11,7v1.86H321.66V51.8c3.72,0,5.11-1.39,5.11-7V33.91l-10.22-21.6c-1.86-4.18-2.55-5.11-3.72-5.81-2.32.93-3,2.55-3,6.27V48.54s0.23,2.79.46,6l-3,.23L284.5,16.73h0Zm-29-2.32L249,35.54h13.47l-7-21.13h0Z" transform="translate(-3.49 -3.26)"/><path class="cls-1" d="M226.67,35.54h-3.48v10c0,5.11,1.39,6.27,5.34,6.27v1.86H210.65V51.8c3.72,0,5.11-1.39,5.11-6.5V12.55c0-5.11-1.39-6-5.11-6V4.88h13.47c13,0,20.67,3.95,20.67,14.63,0,11.15-9.29,16-18.11,16h0Zm-2.32-27.4h-1.16V32.06h2.09c7.66,0,11.61-3.48,11.61-12.31S233.41,8.14,224.35,8.14h0Z" transform="translate(-3.49 -3.26)"/><path class="cls-1" d="M145.62,44.36c-8.83,0-14.86-6.27-14.86-15.33,0-8.59,6.27-15.33,14.86-15.33,8.36,0,14.63,6.5,14.63,15.33,0,8.59-6.5,15.33-14.63,15.33h0Zm0-27.87c-6,0-8.13,5.81-8.13,12.54,0,6.27,1.86,12.54,8.13,12.54,6,0,7.9-6.27,7.9-12.77,0-6.27-2.32-12.31-7.9-12.31h0Z" transform="translate(-3.49 -3.26)"/><path class="cls-1" d="M43.44,41.58V40c2.32,0,2.79-.7,2.79-1.39a6.86,6.86,0,0,0-.46-2.32S45.3,34.38,44.83,33H35.78l-0.93,3a6.88,6.88,0,0,0-.46,2.32c0,0.93.93,1.63,2.32,1.63v1.63H27.65V40c2.32,0,3.25-.7,4.18-3.25l7-20.9a2.13,2.13,0,0,0-2.32-1.63V12.55H43.9c6,17.65,7.66,22.29,7.66,22.29C52.73,38.79,53.89,40,55.75,40v1.63H43.44ZM40.19,19.05L36.7,30.43h7.2L40.19,19.05h0Z" transform="translate(-3.49 -3.26)"/></svg>