<?xml version="1.0" encoding="utf-8"?>
<!-- Generator: Adobe Illustrator 19.0.0, SVG Export Plug-In . SVG Version: 6.00 Build 0)  -->
<svg version="1.1" id="Layer_1" xmlns="http://www.w3.org/2000/svg" xmlns:xlink="http://www.w3.org/1999/xlink" x="0px" y="0px"
	 viewBox="-337 266.1 283.2 28.9" style="enable-background:new -337 266.1 283.2 28.9;" xml:space="preserve">
<style type="text/css">
	.st0{fill:#FFFFFF;}
	.st1{fill:#2C3E50;}
</style>
<title>Wall_Street_Journal_White</title>
<path class="st0" d="M-290.5,266.1c0.3,0.1,0.5,0.2,0.4,0.6c-0.1,0.7-1.2,0.4-1.8,0.6c-1.5,0.5-1,2.5-1.2,3.9v19.7
	c0,0.8-0.1,1.7,0.5,2c0.4,0.6,1.6,0.2,2.4,0.3c1.2-0.2,1.7-1.5,2.5-2.1c0.3-1.1,0.8-2,1-3.1c0.6-2,0.3-4.6,1-6.6
	c0.4-0.1,0.5,0.2,0.6,0.5v11c0.1,0.4,0,0.7-0.1,1.1l-0.9,0.2h-11c-0.4,0-0.9-0.1-1.2-0.4c0.1-1.1,1.9-0.6,1.9-1.9v-14
	c-0.1-1.8,0-4.1,0-5.8s0.5-4-0.7-4.9c-0.5-0.5-2.1,0.3-1.9-0.8c0.1-0.2,0.3-0.4,0.5-0.4H-290.5L-290.5,266.1z"/>
<path class="st0" d="M-250.5,267.6c0.4,0.2,0.8,0.1,1.1-0.1c0.4-0.4,0-1.4,0.8-1.3l0.5,0.1v10.5c-0.2,0.1,0,0.7-0.3,0.7h-0.6
	c-0.2-3.8-0.5-7.7-3.3-9.5c-0.5-0.3-1.1-0.5-1.7-0.5c-1.1,0.2-2,0.9-2.4,1.9c-0.6,1.3-0.6,2.9,0.1,4.2c1.5,2.1,3.9,3.3,5.7,5
	c1.8,1.9,3.9,3.9,4,7.1c0.4,3.1-0.8,6.2-3.2,8.3c-1.4,0.9-3.2,1-4.8,0.4l-2.1-1.4c-0.5-0.2-0.6,0.3-0.8,0.5c0.1,0.5-0.1,0.9-0.5,1.2
	l-0.7-0.2l-0.1-5.8v-6.5c0.3-0.1,0.6-0.1,0.9,0c0.2,4.1,0.3,8.4,3.3,10.4c0.9,0.7,2.1,1,3.3,0.7c1.9-0.8,2.6-2.9,2.6-5.2
	c-0.1-1.8-1-3.5-2.4-4.6c-1.9-2.3-4.7-3.5-6.5-6c-0.4-0.7-0.7-1.4-0.9-2.1c-0.8-3,0-6.3,2.2-8.6c1-0.7,2.3-0.9,3.5-0.7
	C-251.9,266.5-251.2,267-250.5,267.6L-250.5,267.6L-250.5,267.6z"/>
<path class="st0" d="M-329.2,266.2c0.3,0,0.5,0.2,0.6,0.5c-0.3,0.7-1.2,0.7-1.5,1.3c-0.3,0.8-0.3,1.6-0.1,2.4l1.2,7.1
	c0.5,2.3,1,4.7,1.6,7h0.3c0.8-3.4,1.4-6.8,2-10.1c-0.6-2.6-0.1-6.1-2.5-7.3c-0.1-0.3,0-0.6,0.2-0.7c0.1-0.1,0.3-0.1,0.4-0.1
	c1.4,0.1,5.9,0,7,0.1c0.1,0.3,0.1,0.5,0,0.8c-0.8,0.3-1.7,0.2-2.2,0.9c-1.1,1.8,0.4,3.7,0.3,5.8l1.2,6.3c0.3,1.4,0.3,3.1,1.1,4.2
	h0.1l1.5-6.5c0.8-2.7,1.2-5.6,1.8-8.4c0.2-0.7-0.1-1.5-0.7-1.9c-0.5-0.3-1.1-0.4-1.7-0.4c-0.1-0.3-0.1-0.5,0-0.8
	c1.5,0,6.1-0.1,6.7,0c0.3,0.1,0.2,0.6,0.1,0.8c-0.9,0.1-1.7,0.4-2.3,1c-0.5,1.6-1,3.2-1.3,4.9l-1.7,7.8c-1,4.3-2.1,8.6-3.1,13
	c-0.2,0.3-0.6,0.3-0.9,0.1c0,0,0,0,0,0c-0.6-0.8-0.6-2.1-0.9-3.2l-1.5-8.5l-0.8-3.6h-0.2l-1.2,5.9c-0.6,2.9-1.2,5.8-1.8,8.8
	c0,0.5-0.5,0.9-1,0.9c-0.1,0-0.2,0-0.3-0.1c-0.7-0.2-0.4-1.1-0.6-1.7l-0.5-3.2l-1.5-7.8l-1-5.7c-0.3-2.3-0.9-4.6-1.4-6.8
	c-0.2-0.6-0.6-1-1.1-1.4c-0.7-0.2-1.3,0.1-2-0.3c-0.2-0.2-0.3-0.8,0.1-0.9C-336.7,266.2-329.2,266.2-329.2,266.2z"/>
<path class="st0" d="M-306.5,266.9c0.4,2.7,1.2,5.1,1.6,7.9l2.1,10.2c0.5,2.3,0.7,4.6,1.3,6.7c0.2,0.9,1,1.5,1.9,1.6
	c0.1,0.2,0.2,0.5,0.1,0.7l-0.3,0.3h-5.9c-0.2-0.3-1.2,0-1.6-0.3c-0.3-1.5,1.9-0.3,2.1-1.4c0.5-0.5,0.3-1.5,0.2-2.1
	c-0.5-1-0.1-2.7-1.1-3.4h-4l-0.4,0.2c-0.1,1.8-1.4,3.8-0.3,5.6c0.4,0.3,1.2,0.2,1.5,0.5l-0.1,0.6l-5.7,0.1c-0.6,0.2-0.5-0.7-0.3-0.9
	c1,0.1,1.9-0.3,2.5-1.1c0.7-1.6,0.7-3.6,1.2-5.4l1.1-7l1-5.8c0.5-2.4,0.8-4.9,1.3-7.4C-308.2,266.1-306.3,265.8-306.5,266.9
	L-306.5,266.9L-306.5,266.9z"/>
<path class="st0" d="M-275.1,266.2c0.2,0.2,0.2,0.5,0.1,0.8c-0.9,0.4-2.4,0-2.6,1.1c-0.2,3.1-0.2,5.4-0.2,8.5l-0.1,12.1h-0.1
	c0.6,1.5-0.8,4.5,1.4,4.6c0.7,0.1,1.4,0.1,2-0.2c2-1.6,2.6-4.3,3-7c0.3-1.4,0.1-3.1,0.5-4.5c0.3-0.1,0.5-0.1,0.8,0v12.2l-0.1,0.5
	c-1.6,0-3.3,0-4.5,0.1l-5.7-0.1h-3.1c-0.5,0-0.3-0.7-0.2-1c1-0.1,2.2,0,2.7-0.8c0.4-1.5,0.1-3.5,0.3-5.1c-0.2-1.4,0.1-2.9-0.1-4.5
	l0.1-1.3v-12.7c-0.1-0.5-0.4-1-0.7-1.4c-0.6-0.7-3,0.3-2.1-1.3L-275.1,266.2L-275.1,266.2z"/>
<path class="st0" d="M-233,266.3l0.2,0.5v11.5c-0.1,0.2-0.3,0.4-0.5,0.5l-0.5-0.2c0.1-3.3-0.3-6.5-1.4-9.6c-0.2-0.6-0.7-1.1-1.3-1.4
	c-0.4-0.1-0.9,0.1-1.2,0.4v21.2h-0.1c0.1,1.5-0.2,3.4,0.9,4.1c0.7,0.5,1.9-0.3,2,0.8c0,0.8-1.1,0.2-1.6,0.5h-2.2v-0.1
	c-0.7,0.3-1.4-0.2-2,0.1c-0.9-0.1-1.9-0.1-2.8-0.1c-0.3-0.1-0.2-0.7-0.1-0.9c1.1-0.2,2.3-0.3,2.7-1.5v-23.9
	c-0.1-0.4-0.5-0.7-0.9-0.7c-1.5,0.4-1.9,2-2.3,3.5c-0.6,2.3-0.8,4.7-0.7,7.1c-0.2,0.3,0,0.8-0.5,0.8l-0.6-0.2v-12
	C-244.5,266.2-236.1,266.3-233,266.3L-233,266.3L-233,266.3z"/>
<path class="st0" d="M-221.1,266.3c1.7,0.5,3.1,1.6,3.9,3.1c0.7,2.2,1.1,5.8-0.3,7.7c-0.7,1-1.6,1.9-2.6,2.6
	c-0.2,0.7,0.5,0.7,0.9,1.3c1.4,1,1.6,3.3,1.6,5.1c0-0.2-0.2-0.4-0.3-0.2c-0.1,0.2,0,0.4,0.2,0.5c0.1,0,0.1,0,0.2,0
	c0.1,1.7-0.2,3.6,0.2,5.1c0.1,0.3,0.3,0.5,0.6,0.6c0.4-0.2,0.7-0.5,0.8-0.9c0-0.9,0-1.9,0.2-2.8c0.3,0.2,0.6-0.4,0.8,0
	c0.2,2.3,0.1,4.7-1.4,5.8c-0.6,0.4-1.4,0.6-2.1,0.5c-0.9-0.3-1.7-0.9-2.2-1.7l-0.3-1.9v-7.1c-0.3-1.4-0.6-2.9-2-3.3
	c-0.7-0.3-1.4-0.3-2.1,0l-0.2,0.4v11c0.1,0.5,0.4,1,0.9,1.3c0.5,0.1,1.2,0,1.1,0.8l-0.2,0.3l-5.2,0.1c-0.2,0-0.5-0.2-0.6,0
	c-0.5-0.4-2.2,0.5-1.8-0.7c0-0.7,0.9-0.2,1.3-0.5c0.4-0.2,0.8-0.5,1.1-0.9c0.1-0.5,0.2-1.1,0.1-1.6l0.1-5.8c0-2.4-0.1-4.7,0-6.8
	c0-1.5,0-3.6-0.1-5.2c0.1-1,0-2.5,0.1-3.5c-0.2-0.9-0.4-1.8-1.2-2.1c-0.5-0.2-1.4,0.1-1.6-0.4c-0.1-0.3,0-0.6,0.3-0.8
	c0,0,0.1,0,0.1,0L-221.1,266.3L-221.1,266.3z"/>
<path class="st0" d="M-200.2,266.3c0.7,0.3,0.3,1.7,0.4,2.4c0.3,1.6-0.2,3.4,0.1,4.8c-0.3,0.6,0.1,1,0,1.6c-0.1,0.6,0,1.7-0.2,2.3
	c-1.4,0.1-0.7-1.7-0.9-2.6c-0.3-3.1-1.4-5.9-4-7.2c-0.9-0.3-2.4-0.3-3,0.4c-0.6,1.8-0.3,4.8-0.3,6.5c0,0.5,0,1,0,1.5v2.8
	c0.1,0.3-0.1,1.1,0.6,1c2.4-1.1,2.7-3.9,2.7-6.7c0-0.4,0.2-0.6,0.8-0.5l0.1,0.6c-0.2,1.3,0.2,2.9-0.1,4.3c0,1.4,0,3.3,0.1,4.8
	c-0.1,1.7-0.1,3.4,0,5.2c0,0.3-0.2,0.6-0.4,0.6c-0.1,0-0.1,0-0.2,0c-0.7-0.6-0.2-2.3-0.5-3.2c-0.4-1.7-0.8-3.7-2.7-4.1l-0.3,0.2
	c-0.1,1.9-0.2,3.8-0.1,5.8c0,1.8,0.1,4.1,0,5.9c0.6,1.2,2.1,0.7,3.5,0.7c2.5-1.1,3.4-4.1,3.9-6.9l1.2,0.3v7.4l-0.3,0.3l-11.5,0.1
	c-0.8-0.2-2.2,0.1-3-0.2c-0.3-1.6,1.6-0.5,2.2-1.1c0.4-0.2,0.7-0.6,0.8-1v-23.5c-0.2-0.5-0.5-0.9-0.9-1.2c-0.7-0.3-2.2,0.3-2.1-0.9
	l0.2-0.3L-200.2,266.3L-200.2,266.3z"/>
<path class="st0" d="M-185.7,266.3c0.5,0.3,1.9-0.2,2.2,0.4c0,3.7,0.1,6.9,0,10.4c-0.2,0.2-0.5,0.3-0.7,0.2c0,0-0.1,0-0.1-0.1
	c-0.4-3.9-0.3-8.5-3.9-9.9c-0.8-0.3-1.7,0.1-2.5,0.1c-0.5,0.4-0.9,1-0.9,1.7v9.7c0,0.3,0.2,0.5,0.5,0.5c2.7-0.7,2.5-4,2.9-6.7
	c0.2-0.2,0.6-0.2,0.8,0v4.1c0.2,0.2,0,0.2,0,0.6c0.1,0.9,0.1,1.8,0.1,2.7v2.7c-0.3,1.5,0.1,3.4-0.3,4.8c-0.2,0.2-0.5,0.1-0.6-0.1
	c0,0-0.1-0.1-0.1-0.1c-0.2-2.3-0.2-5.3-2-6.7c-0.3-0.2-0.8-0.2-1.1,0l-0.2,0.7v6.5h0.1c0.1,1.6-0.6,4.2,0.6,5.2
	c0.9,0.4,1.9,0.5,2.9,0.3c2.2-0.7,2.8-3,3.6-5c-0.2-0.8,0.3-1.6,0.3-2.5l0.2-3.2c0.1-0.2,0.4-0.3,0.7-0.1c0,0,0,0,0,0l0.2,0.2
	c-0.3,1.5,0.6,3.9-0.8,4.5c-0.1,0.4-0.6,0.4-0.6,0.9c0.5-0.4,0.9-0.9,1.3-1.4h0.1l-0.1,5.8c-0.2,0.7,0.3,1.8-0.5,2
	c-1.7,0.1-3.3,0.2-5,0.1c-3.2-0.2-6.2-0.1-9.2-0.1c-0.3-0.2-0.3-0.6-0.1-0.9c0,0,0,0,0,0c0.9-0.3,2.1-0.1,2.7-1
	c0.9-0.7,0.4-2.7,0.5-4c0.1-2.2-0.2-5.1,0-7.1l-0.1-5.7v-7c-0.2-0.9-0.9-1.5-1.8-1.5c-0.6,0-1.3,0.1-1.1-0.7
	C-197.7,266.2-187.3,266.3-185.7,266.3L-185.7,266.3L-185.7,266.3z"/>
<path class="st0" d="M-135.1,269.2c1.3,1.8,1.7,4.4,2.3,6.9c0.7,5.2,0.2,11.1-1.8,14.9c-0.7,1.4-1.8,2.6-3.2,3.4
	c-1.2,0.3-3,0.4-3.8-0.4c-3.8-3.5-4.7-9-4.6-15.3c0.1-4.1,1.5-8,4-11.2c1.2-1.1,2.9-1.4,4.5-0.9
	C-136.6,267.2-135.7,268.1-135.1,269.2L-135.1,269.2L-135.1,269.2z"/>
<path class="st0" d="M-168.3,266.6l0.2,0.3l0.1,7.7c-0.3,1.3,0,2.9-0.2,4.2c-0.3,0.2-0.6,0.1-0.8-0.1l-0.3-4.9
	c-0.4-2.3-0.8-4.4-2.1-6c-0.3-0.3-0.8-0.3-1.2,0l-0.4,0.4v24.2c0.2,1.4,2.2,0.6,3,1.2c0.1,0.3,0,0.7-0.4,0.9c0,0-0.1,0-0.1,0
	c-2.6,0.3-5.2-0.2-7.8,0c-0.6,0.1-0.6-0.6-0.4-0.9c0.9-0.2,2-0.1,2.3-1l0.1-11.1v-13.1c-0.2-0.3-0.5-0.6-0.8-0.7
	c-1.8,0.2-1.9,2-2.4,3.3l-0.8,5.4c-0.2,0.9,0.2,2.1-0.3,2.6l-0.6-0.1l-0.1-5.6c0-2-0.1-4.5,0.1-6.5
	C-180.5,266.3-170,266.6-168.3,266.6L-168.3,266.6L-168.3,266.6z"/>
<path class="st0" d="M-146.9,266.5c0.5-0.1,0.6,0.4,0.4,0.7c-1,0.2-2,0.2-2.6,0.9c-0.7,1.6,0.1,3.7-0.2,5.4c0.1,0.3-0.1,0.9,0,1.4
	c0.1,1.3,0,2.8,0,4V290c-0.6,2-1.5,4-3.5,4.5c-1.5,0.4-3.2-0.1-4.2-1.4c-1.1-1.6-2.3-3.7-1.4-6.1c0.4-0.9,1.2-1.4,2.1-1.5
	c0.5,0.1,1,0.4,1.3,0.9c-0.1,0.9,0.5,1.9-0.1,2.5c-0.1,0.8-1.2,0.8-1.2,1.7c0,1.1,0.6,2.1,1.6,2.6c0.7,0.2,1.5-0.1,1.9-0.7
	c0.7-2,0.3-5.2,0.3-7.4l0.1-5.8v-10.2c-0.2-0.6-0.5-1.1-0.9-1.6c-0.6-0.5-2,0.2-2.3-0.6l0.3-0.6
	C-152.1,266.4-149.9,266.6-146.9,266.5L-146.9,266.5L-146.9,266.5z"/>
<path class="st0" d="M-125.1,266.6c0.5-0.3,1.1-0.2,1.5,0.2c0.1,0.6-0.3,0.7-0.7,0.8c-0.5,0-1,0.2-1.4,0.6c-0.3,0.9-0.5,1.8-0.4,2.7
	v11.3l-0.1,0.1c0.2,3,0,5,0.2,8.1c0.3,1.2,1,2.3,2.1,2.9c0.9,0.3,2,0,2.7-0.6c0.8-0.7,1.3-1.8,1.4-2.9v-10l-0.1-0.6l0.1-8.8
	c0.1-0.9-0.1-1.8-0.6-2.6c-0.6-0.3-1.3-0.5-2-0.5l0.1-0.7l5.3-0.1c0.3,0,0.5,0.2,0.5,0.5c0,0.5-0.8,0.2-1,0.4c-0.5,0.1-0.9,0.5-1,1
	l-0.3,1.6V290c-0.2,1.6-1.1,3.1-2.4,4.1c-0.8,0.7-2.4,0.4-3.3,0.6c-2-0.4-3.6-1.8-4.3-3.7c-1.2-2.5-0.4-6.6-0.7-9.2v-12.8
	c-0.2-0.5-0.5-1-1-1.3c-0.5-0.2-1.4,0-1.4-0.6s0.6-0.3,0.9-0.5L-125.1,266.6L-125.1,266.6L-125.1,266.6z"/>
<path class="st0" d="M-109,266.8c3-0.4,6,0.2,7.2,2.6c1.2,1.9,1.5,4.1,0.9,6.3c-0.9,1.6-1.6,3.6-3.4,4.4c0,0.9,1,1.1,1.4,1.8
	c0.5,0.8,0.8,1.7,0.8,2.6l0.2,5.1c0,0.9-0.1,2.4,0.8,2.8c1.2-0.4,0.9-2.2,1.1-3.5c0.2-0.1,0.4-0.1,0.6,0c0.4,2-0.2,4.1-1.6,5.6
	c-0.7,0.4-1.6,0.6-2.4,0.4c-0.9,0-0.9-1-1.5-1.5l-0.3-2.9v-5.8c-0.1-1.3-0.2-2.8-1.2-3.5c-0.9-0.6-2-0.8-3-0.4l-0.2,0.3
	c-0.4,3.9,0.1,7.1,0,11.1c0,0.7,0.3,1.3,0.9,1.6c0.5,0,1.1,0.1,1.6,0.2c0.1,0.2,0,0.5,0.1,0.8l-5.3,0.1l-2.9-0.2
	c-0.2-0.2-0.2-0.6,0-0.8c0.8,0,1.5-0.3,2.1-0.8l0.3-1v-22.9c-0.1-0.6-0.4-1.1-0.9-1.5c-0.5-0.2-1.4,0.1-1.4-0.6
	c0.3-0.7,0.9-0.1,1.6-0.4C-111.9,266.8-110.7,266.8-109,266.8L-109,266.8L-109,266.8z"/>
<path class="st0" d="M-94.4,266.6c0.3,0.1,0.5,0.3,0.7,0.6c2,5.6,3.5,11.3,5.8,16.7c0.6-0.1-0.2-0.7,0.2-1c-0.1-2.1,0.1-4.1-0.1-6.3
	c0.2-1.2,0-2.1,0.1-3.4c-0.3-0.2,0.2-0.5-0.1-0.6c0.1-1.4,0-2.9-0.1-4.3c-0.6-0.7-1.5-1-2.4-0.9c0-0.1-0.2-0.7,0.2-0.8h5.8
	c0.4,0.1,0.2,0.5,0.2,0.8c-0.6,0.3-1.5,0.2-1.9,0.8l-0.4,1l-0.1,5.4v17c0,1,0,1.9-0.1,2.9c-0.2,0.2-0.6,0.3-0.9,0.1
	c-0.7-0.9-0.6-2.4-1.3-3.3c-1.1-2.7-1.7-5.8-2.8-8.4l-2-5.7c-0.3-1-0.8-1.8-1.1-2.7l-0.2,0.1c-0.3,1.1-0.3,2.3-0.1,3.4l-0.1,5.4v8.9
	c0.1,0.5,0.5,1,0.9,1.3c0.5,0.3,1.7-0.3,1.7,0.6l-0.1,0.4l-5.6,0.1c-0.4-0.1-0.9-0.1-0.9-0.6c0.4-0.8,2.1,0,2.5-1c0.4-1,0.5-2,0.4-3
	l-0.1-11.4v-9.5c-0.2-1.4-1.6-1.5-2.7-1.8c-0.3-0.2,0-0.5,0-0.7C-97.5,266.6-95.9,266.6-94.4,266.6L-94.4,266.6L-94.4,266.6z"/>
<path class="st0" d="M-75,271.7c0.4,2.8,1.3,5.3,1.6,8.2l1.8,8.3c0.6,2,0.5,4.6,2.4,5.6c0.5,0.1,1.1,0.1,0.8,0.9l-0.1,0.2
	c-2.6,0.2-5.2,0.1-7.8-0.1c-0.5-1.4,1.2-0.8,1.8-1.2c0.5-0.6,0.7-1.4,0.5-2.1c-0.2-1.4-0.5-2.7-1.1-4c-1.6-0.1-3.3-0.1-4.9,0.1
	c-0.4,0.6-0.6,1.4-0.6,2.1c-0.2,1.2-1,3,0.2,4c0.5,0.5,2.5-0.4,1.8,1.1c-1.7,0.2-3.4,0.3-5.1,0.2c-0.5-0.2-1.6,0.2-1.3-0.8
	c0-0.6,1-0.2,1.3-0.4c0.8-0.5,1.4-1.3,1.5-2.3l1.1-6.8l1.5-8.5l0.9-5c0.2-1.5,0.6-3,1.2-4.4l1.3,0.1L-75,271.7L-75,271.7z"/>
<path class="st0" d="M-59.9,266.8c0.4,0,0.8,0.3,0.8,0.7c-0.2,0.7-1.5,0.3-2,0.7c-0.7,0.3-0.7,1.2-0.9,1.8v22.2
	c-0.2,0.6,0.1,1.3,0.6,1.6c1.1,0.4,2.4,0.5,3.6,0.1c1.6-1,1.9-3,2.6-4.8l0.7-5.2c0.2-0.2,0.6-0.2,0.8,0v9.2h-0.1
	c0.1,0.6,0,1.2-0.1,1.8c-0.6,0.1-1.1,0.1-1.7,0.1l-0.3-0.1l-5.4,0.1c-2.1-0.1-4.4,0.2-6.1-0.3c-0.2-0.2-0.2-0.5-0.1-0.7
	c0.6-0.4,1.9,0.1,2.2-0.8l0.1-1v-23.5c-0.5-1-1.6-1.1-2.6-1.1c0-0.4-0.2-0.8,0.2-0.9L-59.9,266.8L-59.9,266.8z"/>
<path class="st1" d="M-136.9,269.3l0.2,1.9v6.3l0.1,0.1l-0.1,12.9c-0.2,0.9-0.6,1.7-1.2,2.5c-0.8,0.5-1.8,0.6-2.6,0.1
	c-1.5-1-1.8-2.9-1.7-4.6c-0.1-1.4,0.4-2.6,0-3.9c0.1-1.5,0-3.2,0.2-4.8c-0.2-0.1,0-0.7-0.2-0.8c0.4-0.5-0.1-0.8,0-1.3
	c0.1-2.5,0-4.4,0-7.3c0.4-1.3,1-2.8,2.4-3.1C-138.5,267.4-137.4,268.1-136.9,269.3L-136.9,269.3z"/>
<path class="st1" d="M-221.9,267.6c2.8,1.7,1.7,6,1.6,9.1c-0.2,0.9-0.7,1.6-1.4,2.2c-1,0.4-2.2,0.5-3.3,0.1l-0.1-10.1
	c0-0.7,0.5-1.4,1.3-1.4c0,0,0,0,0,0C-223.2,267.5-222.6,267.5-221.9,267.6C-221.9,267.6-221.9,267.6-221.9,267.6z"/>
<path class="st1" d="M-104.7,269.2c0.2,0.8,0.4,1.6,0.4,2.4l-0.1,5.3c-0.1,0.9-0.7,1.8-1.5,2.3c-1.2,0.3-2.4,0.3-3.6,0
	c-0.1-3.8-0.1-6.7-0.1-10.4c0.1-0.6,0.5-1,1.1-1.2C-106.6,267.2-105.6,268.2-104.7,269.2L-104.7,269.2L-104.7,269.2z"/>
<path class="st1" d="M-77.5,275.1c0.6,3.8,1.8,7.2,2.3,11l-0.2,0.2l-4,0.1l-0.5-0.3c0.1-1.2,0.3-2.3,0.6-3.5l0.8-5.3
	c0.1-0.8,0.3-1.6,0.6-2.4L-77.5,275.1L-77.5,275.1L-77.5,275.1z"/>
<path class="st1" d="M-307.1,280.4l1,5.4c-0.7,0.8-2.1,0-3.2,0.3l-0.8-0.1l0.1-1.3l0.9-5.7l0.7-3.7l0.2,0.1L-307.1,280.4
	L-307.1,280.4L-307.1,280.4z"/>
</svg>
