<?xml version="1.0" encoding="utf-8"?>
<!-- Generator: Adobe Illustrator 19.0.0, SVG Export Plug-In . SVG Version: 6.00 Build 0)  -->
<svg version="1.1" id="Layer_1" xmlns="http://www.w3.org/2000/svg" xmlns:xlink="http://www.w3.org/1999/xlink" x="0px" y="0px"
	 viewBox="269.7 -55.8 1295.2 672" style="enable-background:new 269.7 -55.8 1295.2 672;" xml:space="preserve">
<style type="text/css">
	.st0{fill:#FFFFFF;}
	.st1{fill:#E5E3E3;}
</style>
<title>mit_white</title>
<g>
	<path class="st0" d="M269.8-55.8c-0.3,30.9,0,61.8-0.1,92.7v579.7c47.2,0.1,94.4,0,141.5,0.1c0.1-224.2,0.1-448.3,0-672.5
		C364.1-55.7,317-55.7,269.8-55.8z M500.9-55.8c0,152.5,0,305,0,457.5c47.2,0,94.3,0,141.5,0c0-152.5,0-305,0-457.5L500.9-55.8
		L500.9-55.8z M731.6-55.8c0.1,224.2,0.1,448.3,0,672.5c47.2,0,94.3,0,141.5,0c0-224.2,0-448.3,0-672.5
		C826-55.7,778.8-55.8,731.6-55.8L731.6-55.8z M962.8-55.8c-0.1,44.5,0,89.1,0,133.6c47.2,0,94.3,0,141.5,0c0-44.5,0-89,0-133.6
		C1057.1-55.8,1009.9-55.7,962.8-55.8z M1197.5-55.7c0,44.5,0,89,0,133.4c124.3,0,248.5,0,372.8,0c0-44.5,0-89,0-133.4H1197.5
		L1197.5-55.7z M962.8,158.9c0,152.6,0,305.2,0,457.8c47.2,0,94.3,0,141.5,0c0-152.6,0-305.2,0-457.9
		C1057.1,159,1009.9,158.9,962.8,158.9z M1197.6,158.9c0,152.6,0,305.2,0,457.9c47.2,0,94.3,0,141.5,0c0.1-152.6,0.1-305.3,0-457.9
		C1291.9,159,1244.7,159,1197.6,158.9L1197.6,158.9z"/>
	<path class="st0" d="M269.8-55.8c47.2,0,94.3,0,141.4,0c0,224.2,0,448.3,0,672.5c-47.2-0.1-94.4,0-141.5-0.1V36.9
		C269.8,6,269.5-24.9,269.8-55.8z"/>
	<path class="st0" d="M500.9-55.8h141.5c0,152.5,0,305,0,457.5c-47.2,0-94.3,0-141.5,0C500.9,249.3,500.9,96.7,500.9-55.8z"/>
	<path class="st0" d="M731.6-55.7c47.2-0.1,94.4,0,141.6,0c-0.1,224.2-0.1,448.3,0,672.5c-47.2,0-94.3,0-141.5,0
		C731.6,392.6,731.5,168.4,731.6-55.7z"/>
	<path class="st0" d="M962.8-55.8c47.2,0.1,94.3,0,141.5,0c0,44.5,0,89,0,133.6c-47.2,0-94.3,0-141.5,0
		C962.8,33.3,962.7-11.3,962.8-55.8z"/>
	<path class="st0" d="M1197.4-55.7h372.8c0,44.5,0,89,0,133.5c-124.3,0-248.5,0-372.8,0C1197.4,33.3,1197.4-11.2,1197.4-55.7z"/>
	<path class="st0" d="M1197.5,158.9c47.2,0.1,94.3,0.1,141.5,0c0,152.6,0,305.3,0,457.9c-47.2-0.1-94.3,0-141.5,0
		C1197.5,464.1,1197.5,311.5,1197.5,158.9z"/>
	<path class="st1" d="M962.8,158.9c47.2,0,94.3,0.1,141.5-0.1c0,152.6,0,305.2,0,457.9c-47.2,0-94.3,0-141.5,0
		C962.8,464.1,962.8,311.5,962.8,158.9z"/>
</g>
</svg>
