<svg id="Layer_1" data-name="Layer 1" xmlns="http://www.w3.org/2000/svg" viewBox="0 0 361.27 48.19"><defs><style>.cls-1{fill:#fff;fill-rule:evenodd;}</style></defs><title>The_Boston_Globe_White</title><path class="cls-1" d="M80.19,41.41l-0.52-.48c-2.58,2.75-3.71,3.5-5.64,3.5-1.44,0-3.15-.92-5.46-3.1v-6.6l11.62-8.87-8-7.86c-3.45,2.75-4,3.23-6.51,5.2a15.4,15.4,0,0,1-3.06,1.92A28.37,28.37,0,0,1,63,28.44V43.2A5.8,5.8,0,0,1,59.35,45a2.09,2.09,0,0,1-2.27-2.19V23.11C56.29,20.62,54.76,19,51.75,18l-7.34,5.94V10c0-2,1.14-3.85,2.18-4.33V5.41a6.48,6.48,0,0,0-6,4.19L39.34,6.94,38.86,7V42.55c-2.93,1.53-6.07,3.23-9.52,3.23a13.49,13.49,0,0,1-1.88-.09V15.33a30,30,0,0,0,3.41.26A6.53,6.53,0,0,0,33.75,15l4-8.08-0.66-.13c-1.53,3.06-2.36,3.54-5.64,3.54-1.53,0-4.94-.39-8.35-0.83-3.23-.39-6.51-0.79-8.21-0.79-5,0-7.91,3.45-7.91,7A7.06,7.06,0,0,0,8.41,20L9,19.52a4.49,4.49,0,0,1-1-2.71c0-1.48,1.14-2.75,4.19-2.75,1.22,0,5.5.39,9.52,0.7A77.37,77.37,0,0,0,8.8,22.84a15.58,15.58,0,0,0-2.88,9.31c0,8.69,6.6,18.13,21.23,18.13,4.28-2.4,10.57-6,10.57-6l5.81,5.24,4-4-3.15-3.28V25.38c1.4-1.88,2.93-2.67,4.11-2.67a3.1,3.1,0,0,1,3,2.71V45.69C52,47.4,54,49,56,49.58l7.21-5.42,8.3,5.72,8.65-8.48h0Zm-5.11-13-6.51,5.24V22.36l0.22-.22,6.29,6.29h0ZM26.67,45.61a17.82,17.82,0,0,1-10.09-4.37c5-3.63,6.12-5.72,6.12-9.74V15.11l0.18-.17c1.62,0.17,2.49.26,3.8,0.35V45.61h0ZM17.45,35.43c0,2.45-.39,3.89-1.7,5a17.48,17.48,0,0,1-4.59-12.36A11.45,11.45,0,0,1,12.6,21.8a31.09,31.09,0,0,1,4.85-3.54V35.43h0Z" transform="translate(-5.92 -5.41)"/><path class="cls-1" d="M152.89,22.84l-9.26-5.07a46.6,46.6,0,0,1-10.57,7.34c0.57,1.7.39,3.89,0.39,6.6,0,6.73.09,10.35-1.14,12.15l10.27,6.29a38,38,0,0,1,10-7.43,9.58,9.58,0,0,1-.44-3.06V28.17c0-3.36.35-4.59,0.74-5.33h0Zm-23.07,7-7.21-4.76c2.75-1.7,3.63-2.18,4.63-2.93,1.66-1.18,2.14-1.92,2.14-2.66,0-.52-0.22-1.57-1.53-3.54-1.62-2.4-3.15-4.76-6.38-9.26-4.5,3.06-7,4.89-11.75,8.61a8.86,8.86,0,0,0-3.41,7c0,1,.09,6.47.09,10,0,2.75-.48,4.19-3.41,6.64-7,0-11.19,4.5-11.19,9a8.1,8.1,0,0,0,2.1,5.55l0.48-.48a6.25,6.25,0,0,1-1.62-4.28c0-2.4,1.75-5.07,7.34-5.07,6.12,0,11.84,4.19,15.16,6.2a35.36,35.36,0,0,1,13.89-7.73V32a3.72,3.72,0,0,1,.66-2.1h0ZM113,9.47L112.78,9a35,35,0,0,1-7-.7,30.56,30.56,0,0,0-5.16-.57c-5.33,0-8.78,2.75-8.78,7.16a5.5,5.5,0,0,0,1.62,4.28l0.48-.48a3.87,3.87,0,0,1-1-2.49c0-1.92,1.62-3.63,5.2-3.63a31.59,31.59,0,0,1,7.17,1C100.77,16.81,98,19.22,98,26.25a7.5,7.5,0,0,0-2.75-.39c-3.41,0-5.16,2.23-5.16,4.41A4.15,4.15,0,0,0,91,33l0.57-.31a3.15,3.15,0,0,1-.39-1.49c0-1.44,1.14-2.58,3.23-2.58a4.22,4.22,0,0,1,3.84,2c0,4.89-1,7.43-3.54,7.43v0.52c3.89,0,8.56-2.8,8.56-7.34v-9c0-7.43,4.37-10.88,9.7-12.71h0Zm33.38,36.39-0.31.22-6.38-3.84V21.8l6.68,3.8V45.87h0ZM123.53,22.06c0,1.75-1.62,2.66-7,6V22.93c0-2.58.17-4,.22-5.07h-1.09a42.67,42.67,0,0,1,.22,5.07V43.51c-3.36-2-7.51-4.11-11.84-4.41,4.11-2.36,8.21-5.5,8.21-10.09V18.91c0-3.23,1.31-5.2,4.67-8.08,2.66,3.93,3.71,5.64,5.81,9.22a5.23,5.23,0,0,1,.83,2h0Zm-0.92,10.09-0.13,11.62a24.67,24.67,0,0,0-3.15,1.83c-0.92-.57-1.79-1.14-2.84-1.75v-15l6.12,3.32h0Z" transform="translate(-5.92 -5.41)"/><path class="cls-1" d="M240.79,44.16l-0.57-.66-2.75,2.36a2.29,2.29,0,0,1-2.32-2.53c0-1.35.09-17.34,0.13-20.1a8.63,8.63,0,0,0-5.46-4.76l-7.34,5.42a6.27,6.27,0,0,0-3.8-5.55L214.4,22l2.27,2.4s-0.09,14.2-.09,16.56a6.17,6.17,0,0,1-1.7,4l6.68,4.94,3.58-4.37-2.67-2.4V25.38c1.27-1.7,2.67-2.45,3.85-2.45a2.89,2.89,0,0,1,2.84,2.36c0.09,1,.09,2.71.09,4.5,0,2.75,0,12.45-.09,16.21,0.48,1.7,3,4.06,4.59,4.06l7-5.9h0ZM211.48,43a10.88,10.88,0,0,1-.39-3.06V23l-8.78-4.94a43.33,43.33,0,0,1-10.18,7.12,11.1,11.1,0,0,1,.39,3V42.46c-1.27,1.4-2.58,2.18-3.71,2.18a4.63,4.63,0,0,1-3.45-1.79c0-1.09.09-13.37,0.09-20.88h6.29V20.44l-6.29-.26s0-5.9.13-7.08h-0.7L176,22.36c-3.76-.57-6.6-1.92-10.7-4.76A27.83,27.83,0,0,1,156,24.29a47.37,47.37,0,0,1,.26,4.94,43.31,43.31,0,0,1-.18,4.94l5.16,3.63-4.85,5.07c-2.1,2.19-2.88,4-2.88,5.77a6.45,6.45,0,0,0,1.62,4.11l0.57-.35a5.76,5.76,0,0,1-1-3.15c0-1.66.87-3.15,3.36-3.15s5.24,1.62,8,3.8a34.93,34.93,0,0,1,8.74-6.38V35.3a5.12,5.12,0,0,1,.31-2l-5.16-3.49,6.6-7.17h3.1c0,7.34-.09,16.78-0.09,17.83a7.61,7.61,0,0,1-1.14,4.19l7.34,5.42L192,44.34l9.13,5.94A37,37,0,0,1,211.48,43h0Zm-6.29,3-0.31.26-6.47-4V22.15l6.77,4V46h0ZM171.85,26.43l-6.77,7.34-3-2.19V21.8a27.36,27.36,0,0,0,9.74,4.63h0Zm-2.66,19.44A15,15,0,0,0,158.48,42l7.91-8.39L169.1,36l0.09,9.87h0Z" transform="translate(-5.92 -5.41)"/><path class="cls-1" d="M322.49,22.54l-9.7-5A40.47,40.47,0,0,1,303,24.24a28.22,28.22,0,0,1,.48,5.55l0,13.32a3.81,3.81,0,0,1-2.66,1.44,5.43,5.43,0,0,1-3.1-1.27V11c0-1.88,1.14-4.06,2.58-4.06V6.72c-3,0-5.64,1.35-6.42,3.63a4.16,4.16,0,0,0-3.58-2.27l0,0.35c1,0,1.92,2.71,1.92,5.29v26c0,2.49-.35,3.76-1.31,5.16l6.47,4.67,6.07-5.24,9.35,5.64a49,49,0,0,1,9.61-7.6,27.84,27.84,0,0,1-.35-4.5V26.34a9.73,9.73,0,0,1,.44-3.8h0ZM287.76,10l-0.7-.61-2.67,2.8a75.63,75.63,0,0,1-12.45-5.46c-7.65,5.81-13.46,9.92-21,15.25a17.74,17.74,0,0,0-2.75,9.92c0,10.35,9.52,18.39,21.54,18.39a40.69,40.69,0,0,0,17.52-13.46,18.78,18.78,0,0,0,.35-3.63c0-7.51-5.11-11.71-10.53-13L287.76,10h0Zm28.75,35.21-0.48.31-6.86-4.33V21.88l7.25,3.54,0.09,19.79h0ZM279.19,16.95l-8.61,7.69V12.75a78.39,78.39,0,0,1,8.61,4.19h0Zm3.15,19.14a16.74,16.74,0,0,1-.87,5.9,13.53,13.53,0,0,1-9.74,3.71h-1.14V24.94a16.1,16.1,0,0,1,2-.13c5.81,0,9.74,5.24,9.74,11.27h0Zm-12.58,9.52a17.27,17.27,0,0,1-10.18-3.93c4-2.75,6.47-4.15,6.47-8.34V12.45l1.22-1c0.87,0.31,1.62.65,2.49,1V45.61h0Zm-8.69-9.26A5.33,5.33,0,0,1,259,41,17,17,0,0,1,254,28.74c0-6.77,2.36-9.35,5.55-11.71,0.52-.39,1-0.7,1.49-1V36.34h0Z" transform="translate(-5.92 -5.41)"/><path class="cls-1" d="M367.18,41.41l-0.48-.48c-2.49,2.49-3.93,3.54-5.42,3.54s-2.8-.87-5.72-3.15v-6.6L367,25.6c-2.66-2.27-8.17-7.73-8.17-7.73a76.53,76.53,0,0,1-9.13,7.25,17.15,17.15,0,0,1,.35,3.06V41a7.25,7.25,0,0,1-.44,2.58l9,6.29,8.65-8.48h0ZM345.3,42.94C344.9,39.31,345,29.49,345,24.85c0-3-2.58-5.16-5.81-6.51l-6.6,5.55V11.79c0-2,1.18-4.19,2.67-4.19V7.2c-3.15,0-6.64,2.49-7.21,4.11a4.68,4.68,0,0,0-4-1.92l-0.09.61c1.62,0,3.14,2.75,3.14,7.6,0,9.79-.09,19.14-0.09,23.16a5.17,5.17,0,0,1-.87,3.23L336,50.06a49,49,0,0,1,9.26-7.12h0Zm16.47-14.59-6.2,5.07V21.88l6.2,6.47h0ZM339.66,35c0,3.54-.18,10.49-0.18,10.75l-0.22.22-6.68-4.19V25.38a4.77,4.77,0,0,1,3.76-2.45,3.56,3.56,0,0,1,3.23,2.67c0,0.65.09,4.94,0.09,9.44h0Z" transform="translate(-5.92 -5.41)"/></svg>