<?xml version="1.0" encoding="utf-8"?>
<!-- Generator: Adobe Illustrator 19.0.0, SVG Export Plug-In . SVG Version: 6.00 Build 0)  -->
<svg version="1.1" id="Layer_1" xmlns="http://www.w3.org/2000/svg" xmlns:xlink="http://www.w3.org/1999/xlink" x="0px" y="0px"
	 viewBox="-346 147.1 266.9 266.9" style="enable-background:new -346 147.1 266.9 266.9;" xml:space="preserve">
<style type="text/css">
	.st0{opacity:0.3;fill:#FFFFFF;}
</style>
<path class="st0" d="M-97.9,151.7h-229.3c-7.9,0-14.2,6.4-14.2,14.2v229.3c0,7.9,6.4,14.2,14.2,14.2h123.4v-99.8h-33.6v-38.9h33.6
	V242c0-33.3,20.3-51.4,50-51.4c14.2,0,26.5,1.1,30,1.5v34.8l-20.6,0c-16.1,0-19.3,7.7-19.3,18.9v24.8h38.5l-5,38.9h-33.5v99.8h65.7
	c7.9,0,14.2-6.4,14.2-14.2V165.9C-83.7,158.1-90.1,151.7-97.9,151.7z"/>
</svg>
