<?xml version="1.0" encoding="utf-8"?>
<!-- Generator: Adobe Illustrator 19.0.0, SVG Export Plug-In . SVG Version: 6.00 Build 0)  -->
<svg version="1.1" id="Layer_1" xmlns="http://www.w3.org/2000/svg" xmlns:xlink="http://www.w3.org/1999/xlink" x="0px" y="0px"
	 viewBox="-425.5 260.7 37.5 40.6" style="enable-background:new -425.5 260.7 37.5 40.6;" xml:space="preserve">
<style type="text/css">
	.st0{fill:#29ABE2;}
	.st1{fill:none;stroke:#29ABE2;stroke-miterlimit:10;}
</style>
<path class="st0" d="M-406.6,291.3c0,0.8-0.6,1.5-1.5,1.5h-15.1c-0.8,0-1.5-0.7-1.5-1.5s0.7-1.5,1.5-1.5h15.1
	C-407.3,289.8-406.6,290.5-406.6,291.3z"/>
<path class="st0" d="M-389.3,282.1c0,0.8-0.7,1.5-1.5,1.5h-32.4c-0.8,0-1.5-0.7-1.5-1.5s0.7-1.5,1.5-1.5h32.4
	C-390,280.6-389.3,281.3-389.3,282.1z"/>
<path class="st0" d="M-389.3,273c0,0.9-0.7,1.5-1.5,1.5h-32.4c-0.8,0-1.5-0.7-1.5-1.5s0.7-1.5,1.5-1.5h32.4
	C-390,271.5-389.3,272.2-389.3,273z"/>
<path class="st0" d="M-389.3,263.8c0,0.8-0.7,1.5-1.5,1.5h-32.4c-0.8,0-1.5-0.7-1.5-1.5s0.7-1.5,1.5-1.5h32.4
	C-390,262.3-389.3,263-389.3,263.8z"/>
<path class="st1" d="M-397,286.3c-3.7,0-6.7,3-6.7,6.7s3,6.7,6.7,6.7s6.7-3,6.7-6.7S-393.4,286.3-397,286.3z"/>
<path class="st0" d="M-392.6,291.6l-5,5.1c-0.2,0.2-0.5,0.3-0.7,0.3c0,0,0,0-0.1,0c-0.3,0-0.5-0.1-0.7-0.3l-2.3-2.8
	c-0.3-0.4-0.3-1.1,0.1-1.4s1.1-0.3,1.4,0.1l1.3,1.5c0.2,0.2,0.5,0.3,0.7,0l3.8-3.9c0.4-0.4,1-0.4,1.4,0
	C-392.3,290.6-392.3,291.2-392.6,291.6z"/>
</svg>
