<?xml version="1.0" encoding="utf-8"?>
<!-- Generator: Adobe Illustrator 19.0.0, SVG Export Plug-In . SVG Version: 6.00 Build 0)  -->
<svg version="1.1" id="Layer_1" xmlns="http://www.w3.org/2000/svg" xmlns:xlink="http://www.w3.org/1999/xlink" x="0px" y="0px"
	 viewBox="0 0 272.2 81.9" style="enable-background:new 0 0 272.2 81.9;" xml:space="preserve">
<style type="text/css">
	.st0{fill-rule:evenodd;clip-rule:evenodd;fill:#FFFFFF;}
	.st1{fill:#F58B1F;}
	.st2{fill-rule:evenodd;clip-rule:evenodd;fill:#231F20;}
	.st3{fill:none;stroke:#231F20;stroke-width:1.0214;stroke-miterlimit:10;}
</style>
<g id="XMLID_96_">
	<path id="XMLID_2_" class="st0" d="M154.7,37.5c3.5,4.9,11.3,4.4,12.6,9.1c0.8,3-1.8,6.1-5.4,5.7c-2.5-0.3-2.7-2.4-4.7-3.8
		c-1.8,0.4-2.8,1.6-4.4,2.2c4,12.4,21.3,7,20.5-4.1c-0.4-5.2-4-6.8-8.2-9.1c-2-1.1-6.2-2.1-6-5c0.2-2.6,4.6-3.4,7.6-2.5
		c1.9,0.6,2.5,2.8,4.4,2.2c0-2.1,0-4.2,0-6.3C160.9,20.3,148.3,28.7,154.7,37.5z M101.7,24.9c-1.2,0.7-0.7,4.5-0.3,5.7
		c2.4,0,4.8,0,7.3,0c0,8.9,0,17.9,0,26.8c1.2,0.5,4.2,0.5,5.4,0c0.9-8.2-0.3-18.6,0.6-26.8c2.2-0.2,5.2,0.4,6.9-0.3
		c0.5-1.1,0.5-4,0-5C115.5,24.5,108.2,25.1,101.7,24.9z M129.4,24.9c-0.5,0.2-0.8,0.5-0.9,0.9c0.2,10.4-0.4,21.7,0.3,31.5
		c5.2,0.7,11.7,0.1,17.3,0.3c0.5-1.3,0.5-4.4,0-5.7c-3.9-0.2-8.6,0.4-12-0.3c0-2.6,0-5.3,0-7.9c3.5,0,6.9,0,10.4,0
		c0.5-1.2,0.5-4.2,0-5.4c-3.5,0-6.9,0-10.4,0c0.2-2.5-0.4-5.9,0.3-7.9c3.5,0,6.9,0,10.4,0c0.5-1.3,0.5-4.4,0-5.7
		C139.7,24.9,134.6,24.9,129.4,24.9z M179.9,24.9c-1.2,0.7-0.7,4.5-0.3,5.7c2.4,0,4.8,0,7.3,0c0,8.9,0,17.9,0,26.8
		c1.2,0.5,4.2,0.5,5.4,0c0.9-8.2-0.3-18.6,0.6-26.8c2.2-0.2,5.2,0.4,6.9-0.3c0.5-1.1,0.5-4,0-5C193.8,24.5,186.4,25.1,179.9,24.9z
		 M206.7,25.9c0,10.4,0,20.8,0,31.2c1.3,0.5,4.4,0.5,5.7,0c0-10.6,0-21.2,0-31.9C211,24.8,207.1,24.3,206.7,25.9z M220.3,25.2
		c1.9,10.5,6.3,21.2,8.8,32.2c1.8,0,3.6,0,5.4,0c3-10.8,6.5-21,9.1-32.2c-1.1-0.7-3.4-0.2-5-0.3c-2.5,7.1-4,15.3-6.9,22.1
		c-1.9-7.6-4.3-14.6-6.3-22.1C223.7,25.1,221.4,24.6,220.3,25.2z M252.4,24.9c-0.5,0.2-0.8,0.5-0.9,0.9c0.2,10.4-0.4,21.7,0.3,31.5
		c5.2,0.7,11.7,0.1,17.3,0.3c0.5-1.3,0.5-4.4,0-5.7c-3.9-0.2-8.6,0.4-12-0.3c0-2.6,0-5.3,0-7.9c3.5,0,6.9,0,10.4,0
		c0.5-1.2,0.5-4.2,0-5.4c-3.5,0-6.9,0-10.4,0c0.2-2.5-0.4-5.9,0.3-7.9c3.5,0,6.9,0,10.4,0c0.5-1.3,0.5-4.4,0-5.7
		C262.7,24.9,257.6,24.9,252.4,24.9z"/>
	<path id="XMLID_10_" class="st0" d="M171.1,25.9c0,2.1,0,4.2,0,6.3c-1.9,0.6-2.5-1.6-4.4-2.2c-3-0.9-7.4-0.1-7.6,2.5
		c-0.2,2.9,4,3.9,6,5c4.2,2.3,7.8,3.9,8.2,9.1c0.8,11.1-16.5,16.5-20.5,4.1c1.6-0.6,2.6-1.8,4.4-2.2c2,1.4,2.2,3.5,4.7,3.8
		c3.5,0.4,6.2-2.6,5.4-5.7c-1.3-4.7-9.1-4.2-12.6-9.1C148.3,28.7,160.9,20.3,171.1,25.9z"/>
	<path id="XMLID_11_" class="st0" d="M121.5,25.2c0.5,1.1,0.5,4,0,5c-1.7,0.7-4.7,0.1-6.9,0.3c-0.9,8.2,0.3,18.6-0.6,26.8
		c-1.2,0.5-4.2,0.5-5.4,0c0-8.9,0-17.9,0-26.8c-2.4,0-4.8,0-7.3,0c-0.4-1.2-0.8-5,0.3-5.7C108.2,25.1,115.5,24.5,121.5,25.2z"/>
	<path id="XMLID_12_" class="st0" d="M144.9,24.9c0.5,1.3,0.5,4.4,0,5.7c-3.5,0-6.9,0-10.4,0c-0.7,2-0.1,5.4-0.3,7.9
		c3.5,0,6.9,0,10.4,0c0.5,1.2,0.5,4.2,0,5.4c-3.5,0-6.9,0-10.4,0c0,2.6,0,5.3,0,7.9c3.4,0.7,8.1,0.1,12,0.3c0.5,1.3,0.5,4.4,0,5.7
		c-5.7-0.2-12.2,0.4-17.3-0.3c-0.7-9.9-0.1-21.1-0.3-31.5c0.2-0.5,0.5-0.8,0.9-0.9C134.6,24.9,139.7,24.9,144.9,24.9z"/>
	<path id="XMLID_13_" class="st0" d="M199.8,25.2c0.5,1.1,0.5,4,0,5c-1.7,0.7-4.7,0.1-6.9,0.3c-0.9,8.2,0.3,18.6-0.6,26.8
		c-1.2,0.5-4.2,0.5-5.4,0c0-8.9,0-17.9,0-26.8c-2.4,0-4.8,0-7.3,0c-0.4-1.2-0.8-5,0.3-5.7C186.4,25.1,193.8,24.5,199.8,25.2z"/>
	<path id="XMLID_14_" class="st0" d="M212.4,25.2c0,10.6,0,21.2,0,31.9c-1.3,0.5-4.4,0.5-5.7,0c0-10.4,0-20.8,0-31.2
		C207.1,24.3,211,24.8,212.4,25.2z"/>
	<path id="XMLID_15_" class="st0" d="M225.3,24.9c2,7.5,4.4,14.5,6.3,22.1c2.9-6.8,4.4-14.9,6.9-22.1c1.6,0.2,3.9-0.3,5,0.3
		c-2.6,11.1-6.2,21.3-9.1,32.2c-1.8,0-3.6,0-5.4,0c-2.5-10.9-6.9-21.7-8.8-32.2C221.4,24.6,223.7,25.1,225.3,24.9z"/>
	<path id="XMLID_16_" class="st0" d="M267.9,24.9c0.5,1.3,0.5,4.4,0,5.7c-3.5,0-6.9,0-10.4,0c-0.7,2-0.1,5.4-0.3,7.9
		c3.5,0,6.9,0,10.4,0c0.5,1.2,0.5,4.2,0,5.4c-3.5,0-6.9,0-10.4,0c0,2.6,0,5.3,0,7.9c3.4,0.7,8.1,0.1,12,0.3c0.5,1.3,0.5,4.4,0,5.7
		c-5.7-0.2-12.2,0.4-17.3-0.3c-0.7-9.9-0.1-21.1-0.3-31.5c0.2-0.5,0.5-0.8,0.9-0.9C257.6,24.9,262.7,24.9,267.9,24.9z"/>
</g>
<g id="XMLID_38_">
	<path id="XMLID_23_" class="st1" d="M21.8,2.9c0,0,2,0.9,9.4,19.3h24.8c0,0,4.7-14.5,9.6-20l3.7,6.6l-1.8,3.8l3.6,0.9
		c0,0,12.7,42.7,13.2,43.5l-7.2-2.2l5.5,9.1L73,60.4l3.1,5.1h-8.4L45.9,79.8h-4.5L17,65.7l-7.2,0.1l3.7-5.2l-8.5,3l5-9L3.2,57
		C3.2,57,20,1.6,21.8,2.9"/>
	<polygon id="XMLID_22_" points="38.5,66.5 48.2,66.5 43.4,72.1 	"/>
	<path id="XMLID_21_" class="st2" d="M45.6,39.9c2.2,0,2.5,4.1,2.5,4.1c1.6,7.4,7.1,10.6,7.1,10.6c2.7,2,14.3,0.6,14.3,0.6
		c4.6-0.6,5.8-3.6,5.8-3.6c2.1-2.7,2.8-9.5,2.8-9.5c0.1-4.4,3-4.7,3-4.7v-3.1c-3.2-1.7-12.1-2-12.1-2h-8.2c-8.2,0-14.9,4-14.9,4"/>
	<path id="XMLID_20_" class="st3" d="M45.6,39.9c2.2,0,2.5,4.1,2.5,4.1c1.6,7.4,7.1,10.6,7.1,10.6c2.7,2,14.3,0.6,14.3,0.6
		c4.6-0.6,5.8-3.6,5.8-3.6c2.1-2.7,2.8-9.5,2.8-9.5c0.1-4.4,3-4.7,3-4.7v-3.1c-3.2-1.7-12.1-2-12.1-2h-8.2c-8.2,0-14.9,4-14.9,4"/>
	<path id="XMLID_19_" class="st2" d="M46.2,40l-3.6-0.1c-2.2,0-2.5,4.1-2.5,4.1C38.6,51.4,33,54.6,33,54.6c-2.7,2-14.3,0.6-14.3,0.6
		c-4.6-0.6-5.8-3.6-5.8-3.6c-2.1-2.7-2.8-9.5-2.8-9.5c-0.1-4.4-3-4.7-3-4.7v-3.1c3.2-1.7,12.1-2,12.1-2h8.2c8.2,0,14.9,4,14.9,4h4.1
		L46.2,40z"/>
	<path id="XMLID_18_" class="st3" d="M46.2,40l-3.6-0.1c-2.2,0-2.5,4.1-2.5,4.1C38.6,51.4,33,54.6,33,54.6c-2.7,2-14.3,0.6-14.3,0.6
		c-4.6-0.6-5.8-3.6-5.8-3.6c-2.1-2.7-2.8-9.5-2.8-9.5c-0.1-4.4-3-4.7-3-4.7v-3.1c3.2-1.7,12.1-2,12.1-2h8.2c8.2,0,14.9,4,14.9,4h4.1
		L46.2,40z"/>
	<path id="XMLID_17_" class="st1" d="M12.1,37c0,0,1.3-2.4,6.3-3c0,0,4.5-0.6,11.5,0c0,0,6.7,0.5,7.9,3.9c0,0,1.1,3-0.6,8.3
		c0,0-1.4,5.2-5.5,7c0,0-3.5,2.1-13.9,0c0,0-4.4-0.8-5.8-7.7C12,45.6,10.9,40.8,12.1,37"/>
	<path id="XMLID_24_" class="st1" d="M75.9,37c0,0-1.3-2.4-6.3-3c0,0-4.5-0.6-11.5,0c0,0-6.7,0.5-7.9,3.9c0,0-1.1,3,0.6,8.3
		c0,0,1.4,5.2,5.5,7c0,0,3.5,2.1,13.9,0c0,0,4.4-0.8,5.8-7.7C75.9,45.6,77.1,40.8,75.9,37"/>
</g>
</svg>
